# xmcd CD database file
#
# Track frame offsets:
#	180
#	22935
#	36567
#	61480
#	83877
#	97468
#	119859
#	132294
#
# Disc length: 2022 seconds
#
# Revision: 0
# Processed by: cddbd v1.5.2PL0 Copyright (c) Steve Scherf et al.
# Submitted via: CDex 1.70beta2
#
DISCID=7707e408
DTITLE=Mark Rigg and the Big Rigg Band - Blues Injection
DYEAR=1994
DGENRE=Blues
TTITLE0=Six Days on the Road
TTITLE1=Every Woman I Know
TTITLE2=Blues Injection
TTITLE3=Seasons Change
TTITLE4=Hey Bartender
TTITLE5=I Can Stand Alone
TTITLE6=She's My Girl
TTITLE7=Quiet Night in Chicago
EXTD=YEAR: 1994
EXTT0=
EXTT1=
EXTT2=
EXTT3=
EXTT4=
EXTT5=
EXTT6=
EXTT7=
PLAYORDER=
